# xmcd
#
# Track frame offsets:
#	150
#	14571
#	27705
#	42490
#	55923
#	72568
#	87177
#	101775
#	110094
#	125034
#	141397
#	159005
#	174398
#	189737
#	208644
#	220855
#	233578
#	244082
#	256455
#	272546
#	281368
#
# Disc length: 4010 seconds
#
# Revision: 0
# Processed by: cddbd v1.5.2PL0 Copyright (c) Steve Scherf et al.
# Submitted via: EasyCDDAExtractor 12.0.1.1
#
DISCID=3f0fa815
DTITLE=Various Artist - Dansefestivalen I Sel 2006
DYEAR=2006
DGENRE=Danseband
TTITLE0=Ingemars - Så Ærker Je da Litt
TTITLE1=Anne Nørdsti - Jeg Vil Aldri Slippe Taket
TTITLE2=Lasse Stefanz - När Countryn Kom Till Skåne
TTITLE3=Arnsteins - Trønderbrura
TTITLE4=Ole Ivars - En Drøm Blir Sjelden Oppfylt Ta Seg Sjøl
TTITLE5=Furulunds - Fest På Folkets Hus
TTITLE6=Dænsebændet - Frøken Eva Ifrå Lena
TTITLE7=Sven Nyhus Kvartett - Va Det Je, Hell Va Det Du?
TTITLE8=Trond Erics - Den Gamle Tvinne Bjørka
TTITLE9=Holmsve - Linedancebølgen Går
TTITLE10=Sten and Stanley - En Bild Av Dig
TTITLE11=Contrazt - Kan Du Prøve Å Forstå
TTITLE12=Dalakopa - Drömmen
TTITLE13=Lasse Johansens Orkester - Fem Mann I Et Danseband
TTITLE14=Nordans - Syvers Lørdagsdans
TTITLE15=Scandinavia - Hei Gamle Venn
TTITLE16=Jutullaget - Masurka Etter Teodor Bakken
TTITLE17=Bjørns Orkester - Dra Opp Buksa Di
TTITLE18=Pk and Dansefolket - Det Er Lenge Sia No
TTITLE19=Småviltlaget - Enges-Maren (Vals)
TTITLE20=Veronica Akselsen - Hvor Er Du Nå
EXTD=
EXTT0=
EXTT1=
EXTT2=
EXTT3=
EXTT4=
EXTT5=
EXTT6=
EXTT7=
EXTT8=
EXTT9=
EXTT10=
EXTT11=
EXTT12=
EXTT13=
EXTT14=
EXTT15=
EXTT16=
EXTT17=
EXTT18=
EXTT19=
EXTT20=
PLAYORDER=
